<mxfile host="app.diagrams.net" agent="Mozilla/5.0 (Windows NT 10.0; Win64; x64) AppleWebKit/537.36 (KHTML, like Gecko) Chrome/136.0.0.0 Safari/537.36" version="27.0.6">
  <diagram name="페이지-1" id="tUya4GqgupcTnaYld52O">
    <mxGraphModel dx="2010" dy="2547" grid="1" gridSize="10" guides="1" tooltips="1" connect="1" arrows="1" fold="1" page="1" pageScale="1" pageWidth="827" pageHeight="1169" math="0" shadow="0">
      <root>
        <mxCell id="0" />
        <mxCell id="1" parent="0" />
        <mxCell id="XSOK0T-FbrCkJ5V0vqbv-1" value="" style="swimlane;startSize=0;" parent="1" vertex="1">
          <mxGeometry x="748" y="380" width="2120" height="2510" as="geometry" />
        </mxCell>
        <mxCell id="XSOK0T-FbrCkJ5V0vqbv-2" value="&lt;span style=&quot;font-size: 24px;&quot;&gt;긴급 소리 선택&lt;/span&gt;" style="ellipse;whiteSpace=wrap;html=1;" parent="XSOK0T-FbrCkJ5V0vqbv-1" vertex="1">
          <mxGeometry x="220" y="257" width="376" height="194" as="geometry" />
        </mxCell>
        <mxCell id="XSOK0T-FbrCkJ5V0vqbv-3" value="&lt;span style=&quot;font-size: 24px;&quot;&gt;비상연락망 등록&lt;/span&gt;&lt;span style=&quot;color: rgba(0, 0, 0, 0); font-family: monospace; font-size: 0px; text-align: start; text-wrap-mode: nowrap;&quot;&gt;%3CmxGraphModel%3E%3Croot%3E%3CmxCell%20id%3D%220%22%2F%3E%3CmxCell%20id%3D%221%22%20parent%3D%220%22%2F%3E%3CmxCell%20id%3D%222%22%20value%3D%22%26lt%3Bfont%20style%3D%26quot%3Bfont-size%3A%2024px%3B%26quot%3B%26gt%3B%EA%B8%B4%EA%B8%89%20%EB%8C%80%EC%9D%91%20%EC%84%A4%EC%A0%95%26lt%3B%2Ffont%26gt%3B%22%20style%3D%22ellipse%3BwhiteSpace%3Dwrap%3Bhtml%3D1%3B%22%20vertex%3D%221%22%20parent%3D%221%22%3E%3CmxGeometry%20x%3D%22280%22%20y%3D%22-223%22%20width%3D%22376%22%20height%3D%22194%22%20as%3D%22geometry%22%2F%3E%3C%2FmxCell%3E%3C%2Froot%3E%3C%2FmxGraphModel%3E&lt;/span&gt;" style="ellipse;whiteSpace=wrap;html=1;" parent="XSOK0T-FbrCkJ5V0vqbv-1" vertex="1">
          <mxGeometry x="212" y="569" width="376" height="194" as="geometry" />
        </mxCell>
        <mxCell id="XSOK0T-FbrCkJ5V0vqbv-4" value="&lt;span style=&quot;font-size: 24px;&quot;&gt;자동 알림 전송 설정&lt;/span&gt;" style="ellipse;whiteSpace=wrap;html=1;" parent="XSOK0T-FbrCkJ5V0vqbv-1" vertex="1">
          <mxGeometry x="274" y="1001" width="376" height="194" as="geometry" />
        </mxCell>
        <mxCell id="XSOK0T-FbrCkJ5V0vqbv-5" value="&lt;span style=&quot;font-size: 24px;&quot;&gt;자동 긴급 알림 전송&lt;/span&gt;" style="ellipse;whiteSpace=wrap;html=1;" parent="XSOK0T-FbrCkJ5V0vqbv-1" vertex="1">
          <mxGeometry x="1232" y="1279" width="376" height="194" as="geometry" />
        </mxCell>
        <mxCell id="XSOK0T-FbrCkJ5V0vqbv-6" value="&lt;span style=&quot;font-size: 24px;&quot;&gt;알림 전송 결과 확인&lt;/span&gt;" style="ellipse;whiteSpace=wrap;html=1;" parent="XSOK0T-FbrCkJ5V0vqbv-1" vertex="1">
          <mxGeometry x="1232" y="1604" width="376" height="194" as="geometry" />
        </mxCell>
        <mxCell id="XSOK0T-FbrCkJ5V0vqbv-7" value="&lt;span style=&quot;font-size: 24px;&quot;&gt;위치 권한 요청&lt;/span&gt;" style="ellipse;whiteSpace=wrap;html=1;" parent="XSOK0T-FbrCkJ5V0vqbv-1" vertex="1">
          <mxGeometry x="1241" y="335" width="376" height="194" as="geometry" />
        </mxCell>
        <mxCell id="XSOK0T-FbrCkJ5V0vqbv-8" value="&lt;span style=&quot;font-size: 24px;&quot;&gt;알림 메시지 커스터마이징&lt;/span&gt;" style="ellipse;whiteSpace=wrap;html=1;" parent="XSOK0T-FbrCkJ5V0vqbv-1" vertex="1">
          <mxGeometry x="521" y="1406" width="376" height="194" as="geometry" />
        </mxCell>
        <mxCell id="XSOK0T-FbrCkJ5V0vqbv-9" value="&lt;span style=&quot;font-size: 24px;&quot;&gt;알림 방식 설정&lt;/span&gt;" style="ellipse;whiteSpace=wrap;html=1;" parent="XSOK0T-FbrCkJ5V0vqbv-1" vertex="1">
          <mxGeometry x="1145" y="572" width="376" height="194" as="geometry" />
        </mxCell>
        <mxCell id="XSOK0T-FbrCkJ5V0vqbv-10" value="&lt;font style=&quot;font-size: 72px;&quot;&gt;긴급 연락 시스템&amp;nbsp;&lt;/font&gt;" style="text;html=1;align=center;verticalAlign=middle;resizable=0;points=[];autosize=1;strokeColor=none;fillColor=none;" parent="1" vertex="1">
          <mxGeometry x="783" y="200" width="542" height="98" as="geometry" />
        </mxCell>
        <mxCell id="XSOK0T-FbrCkJ5V0vqbv-11" value="&lt;font style=&quot;font-size: 48px;&quot;&gt;사용자&lt;/font&gt;" style="shape=umlActor;verticalLabelPosition=bottom;verticalAlign=top;html=1;outlineConnect=0;" parent="1" vertex="1">
          <mxGeometry x="450" y="828" width="124" height="225" as="geometry" />
        </mxCell>
        <mxCell id="XSOK0T-FbrCkJ5V0vqbv-12" value="&lt;span style=&quot;font-size: 48px;&quot;&gt;보호자&lt;/span&gt;" style="shape=umlActor;verticalLabelPosition=bottom;verticalAlign=top;html=1;outlineConnect=0;" parent="1" vertex="1">
          <mxGeometry x="3028" y="2123" width="124" height="225" as="geometry" />
        </mxCell>
        <mxCell id="XSOK0T-FbrCkJ5V0vqbv-13" value="&lt;span style=&quot;font-size: 48px;&quot;&gt;외부 API&lt;/span&gt;" style="shape=umlActor;verticalLabelPosition=bottom;verticalAlign=top;html=1;outlineConnect=0;" parent="1" vertex="1">
          <mxGeometry x="3037" y="668" width="124" height="225" as="geometry" />
        </mxCell>
      </root>
    </mxGraphModel>
  </diagram>
</mxfile>
